# xmcd
#
# Track frame offsets:
#	150
#	16378
#	31603
#	42883
#	60399
#	80916
#	94415
#	109151
#	122112
#	131374
#	145820
#	157632
#	178758
#	203581
#
# Disc length: 2885 seconds
#
# Revision: 1
# Processed by: cddbd v1.5.2PL0 Copyright (c) Steve Scherf et al.
# Submitted via: audiograbber 1.83.01
#
DISCID=b00b430e
DTITLE=American Folk Blues Fest - Disc 3
DYEAR=1900
DGENRE=
TTITLE0=Goin' Down Slow (alternate)
TTITLE1=Sittin' and Cryin' Blues
TTITLE2=Crazy For My
TTITLE3=Spivey
TTITLE4=T_B_ Blues
TTITLE5=Big Roll Blues
TTITLE6=Back in the Bottom Blues
TTITLE7=I Have No Friends
TTITLE8=Baby, Please Don't Go
TTITLE9=Careless Love
TTITLE10=C_C_ Rider (traditional)
TTITLE11=It's Too Late to Cry
TTITLE12=Matt's Guitar Blues
TTITLE13=Bye Bye Blues
EXTD=
EXTT0=
EXTT1=
EXTT2=
EXTT3=
EXTT4=
EXTT5=
EXTT6=
EXTT7=
EXTT8=
EXTT9=
EXTT10=
EXTT11=
EXTT12=
EXTT13=
PLAYORDER=
